#Comment line ignore any data following # character 
#Hierarchical Translation and Rotation (.htr) file 
[Header]	
#Header keywords are followed by a single value 
FileType HTR		#Single word string
DataType HTRS		#Translation followed by rotation and scale data
FileVersion 1		#integer
NumSegments 84		#integer
NumFrames 2		#integer
DataFrameRate 30		#integer, data frame rate in this file
EulerRotationOrder ZYX
CalibrationUnits mm
RotationUnits Degrees
GlobalAxisofGravity Y
BoneLengthAxis Y
ScaleFactor 1.00
[SegmentNames&Hierarchy]
#CHILD	PARENT
MASTER GLOBAL
root MASTER
chest root
L_mid_tent01 root
R_mid_tent01 root
spine01 root
Bip01_Neck chest
L_humerus chest
R_humerus chest
weapon_bone chest
Bip01_Head Bip01_Neck
eye_left_bone Bip01_Head
eye_right_bone Bip01_Head
L_forearm L_humerus
L_front_hand L_forearm
L_weapon_bone L_forearm
L_front_hand01_01 L_front_hand
L_front_hand02_01 L_front_hand
L_front_hand03_01 L_front_hand
L_front_hand01_02 L_front_hand01_01
L_front_hand02_02 L_front_hand02_01
L_front_hand03_02 L_front_hand03_01
R_forearm R_humerus
R_front_hand R_forearm
R_weapon_bone R_forearm
R_front_hand01_01 R_front_hand
R_front_hand02_01 R_front_hand
R_front_hand03_01 R_front_hand
R_front_hand01_02 R_front_hand01_01
R_front_hand02_02 R_front_hand02_01
R_front_hand03_02 R_front_hand03_01
null_rope01_connect L_mid_tent01
Rope1_Seg01 null_rope01_connect
Rope1_Seg02 Rope1_Seg01
Rope1_Seg03 Rope1_Seg02
Rope1_Seg04 Rope1_Seg03
Rope1_Seg05 Rope1_Seg04
Rope1_Seg06 Rope1_Seg05
Rope1_Seg07 Rope1_Seg06
Rope1_Seg09 Rope1_Seg07
L_mid_hand01 Rope1_Seg09
L_mid_hand02 Rope1_Seg09
L_mid_hand03 Rope1_Seg09
null_rope02_connect R_mid_tent01
Rope2_Seg01 null_rope02_connect
Rope2_Seg02 Rope2_Seg01
Rope2_Seg03 Rope2_Seg02
Rope2_Seg04 Rope2_Seg03
Rope2_Seg05 Rope2_Seg04
Rope2_Seg06 Rope2_Seg05
Rope2_Seg07 Rope2_Seg06
Rope2_Seg09 Rope2_Seg07
R_mid_hand01 Rope2_Seg09
R_mid_hand02 Rope2_Seg09
R_mid_hand03 Rope2_Seg09
spine02 spine01
spine03 spine02
pelvis spine03
null_rope03_connect pelvis
null_rope04_connect pelvis
Rope3_Seg01 null_rope03_connect
Rope3_Seg02 Rope3_Seg01
Rope3_Seg03 Rope3_Seg02
Rope3_Seg04 Rope3_Seg03
Rope3_Seg05 Rope3_Seg04
Rope3_Seg06 Rope3_Seg05
Rope3_Seg07 Rope3_Seg06
Rope3_Seg08 Rope3_Seg07
Rope3_Seg09 Rope3_Seg08
R_rear_hand01 Rope3_Seg09
R_rear_hand02 Rope3_Seg09
R_rear_hand03 Rope3_Seg09
Rope4_Seg01 null_rope04_connect
Rope4_Seg02 Rope4_Seg01
Rope4_Seg03 Rope4_Seg02
Rope4_Seg04 Rope4_Seg03
Rope4_Seg05 Rope4_Seg04
Rope4_Seg06 Rope4_Seg05
Rope4_Seg07 Rope4_Seg06
Rope4_Seg08 Rope4_Seg07
Rope4_Seg09 Rope4_Seg08
L_rear_hand01 Rope4_Seg09
L_rear_hand02 Rope4_Seg09
L_rear_hand03 Rope4_Seg09
[BasePosition]
#SegmentName Tx, Ty, Tz, Rx, Ry, Rz, BoneLength
MASTER 0.000000 0.000000 0.000000 -90.000000 0.000000 0.000000 10.000000 
root 0.000000 0.000000 0.000000 0.000000 0.000000 0.000000 10.000000 
chest 0.000000 0.000000 0.000000 0.000000 0.000000 0.000000 10.000000 
L_mid_tent01 0.000000 0.000000 0.000000 0.000000 0.000000 0.000000 10.000000 
R_mid_tent01 0.000000 0.000000 0.000000 0.000000 0.000000 0.000000 10.000000 
spine01 0.000000 0.000000 0.000000 0.000000 0.000000 0.000000 10.000000 
Bip01_Neck 0.000000 0.000000 0.000000 0.000000 0.000000 0.000000 10.000000 
L_humerus 0.000000 0.000000 0.000000 0.000000 0.000000 0.000000 10.000000 
R_humerus 0.000000 0.000000 0.000000 0.000000 0.000000 0.000000 10.000000 
weapon_bone 0.000000 0.000000 0.000000 0.000000 0.000000 0.000000 10.000000 
Bip01_Head 0.000000 0.000000 0.000000 0.000000 0.000000 0.000000 10.000000 
eye_left_bone 0.000000 0.000000 0.000000 0.000000 0.000000 0.000000 10.000000 
eye_right_bone 0.000000 0.000000 0.000000 0.000000 0.000000 0.000000 10.000000 
L_forearm 0.000000 0.000000 0.000000 0.000000 0.000000 0.000000 10.000000 
L_front_hand 0.000000 0.000000 0.000000 0.000000 0.000000 0.000000 10.000000 
L_weapon_bone 0.000000 0.000000 0.000000 0.000000 0.000000 0.000000 10.000000 
L_front_hand01_01 0.000000 0.000000 0.000000 0.000000 0.000000 0.000000 10.000000 
L_front_hand02_01 0.000000 0.000000 0.000000 0.000000 0.000000 0.000000 10.000000 
L_front_hand03_01 0.000000 0.000000 0.000000 0.000000 0.000000 0.000000 10.000000 
L_front_hand01_02 0.000000 0.000000 0.000000 0.000000 0.000000 0.000000 10.000000 
L_front_hand02_02 0.000000 0.000000 0.000000 0.000000 0.000000 0.000000 10.000000 
L_front_hand03_02 0.000000 0.000000 0.000000 0.000000 0.000000 0.000000 10.000000 
R_forearm 0.000000 0.000000 0.000000 0.000000 0.000000 0.000000 10.000000 
R_front_hand 0.000000 0.000000 0.000000 0.000000 0.000000 0.000000 10.000000 
R_weapon_bone 0.000000 0.000000 0.000000 0.000000 0.000000 0.000000 10.000000 
R_front_hand01_01 0.000000 0.000000 0.000000 0.000000 0.000000 0.000000 10.000000 
R_front_hand02_01 0.000000 0.000000 0.000000 0.000000 0.000000 0.000000 10.000000 
R_front_hand03_01 0.000000 0.000000 0.000000 0.000000 0.000000 0.000000 10.000000 
R_front_hand01_02 0.000000 0.000000 0.000000 0.000000 0.000000 0.000000 10.000000 
R_front_hand02_02 0.000000 0.000000 0.000000 0.000000 0.000000 0.000000 10.000000 
R_front_hand03_02 0.000000 0.000000 0.000000 0.000000 0.000000 0.000000 10.000000 
null_rope01_connect 0.000000 0.000000 0.000000 0.000000 0.000000 0.000000 10.000000 
Rope1_Seg01 0.000000 0.000000 0.000000 0.000000 0.000000 0.000000 10.000000 
Rope1_Seg02 0.000000 0.000000 0.000000 0.000000 0.000000 0.000000 10.000000 
Rope1_Seg03 0.000000 0.000000 0.000000 0.000000 0.000000 0.000000 10.000000 
Rope1_Seg04 0.000000 0.000000 0.000000 0.000000 0.000000 0.000000 10.000000 
Rope1_Seg05 0.000000 0.000000 0.000000 0.000000 0.000000 0.000000 10.000000 
Rope1_Seg06 0.000000 0.000000 0.000000 0.000000 0.000000 0.000000 10.000000 
Rope1_Seg07 0.000000 0.000000 0.000000 0.000000 0.000000 0.000000 10.000000 
Rope1_Seg09 0.000000 0.000000 0.000000 0.000000 0.000000 0.000000 10.000000 
L_mid_hand01 0.000000 0.000000 0.000000 0.000000 0.000000 0.000000 10.000000 
L_mid_hand02 0.000000 0.000000 0.000000 0.000000 0.000000 0.000000 10.000000 
L_mid_hand03 0.000000 0.000000 0.000000 0.000000 0.000000 0.000000 10.000000 
null_rope02_connect 0.000000 0.000000 0.000000 0.000000 0.000000 0.000000 10.000000 
Rope2_Seg01 0.000000 0.000000 0.000000 0.000000 0.000000 0.000000 10.000000 
Rope2_Seg02 0.000000 0.000000 0.000000 0.000000 0.000000 0.000000 10.000000 
Rope2_Seg03 0.000000 0.000000 0.000000 0.000000 0.000000 0.000000 10.000000 
Rope2_Seg04 0.000000 0.000000 0.000000 0.000000 0.000000 0.000000 10.000000 
Rope2_Seg05 0.000000 0.000000 0.000000 0.000000 0.000000 0.000000 10.000000 
Rope2_Seg06 0.000000 0.000000 0.000000 0.000000 0.000000 0.000000 10.000000 
Rope2_Seg07 0.000000 0.000000 0.000000 0.000000 0.000000 0.000000 10.000000 
Rope2_Seg09 0.000000 0.000000 0.000000 0.000000 0.000000 0.000000 10.000000 
R_mid_hand01 0.000000 0.000000 0.000000 0.000000 0.000000 0.000000 10.000000 
R_mid_hand02 0.000000 0.000000 0.000000 0.000000 0.000000 0.000000 10.000000 
R_mid_hand03 0.000000 0.000000 0.000000 0.000000 0.000000 0.000000 10.000000 
spine02 0.000000 0.000000 0.000000 0.000000 0.000000 0.000000 10.000000 
spine03 0.000000 0.000000 0.000000 0.000000 0.000000 0.000000 10.000000 
pelvis 0.000000 0.000000 0.000000 0.000000 0.000000 0.000000 10.000000 
null_rope03_connect 0.000000 0.000000 0.000000 0.000000 0.000000 0.000000 10.000000 
null_rope04_connect 0.000000 0.000000 0.000000 0.000000 0.000000 0.000000 10.000000 
Rope3_Seg01 0.000000 0.000000 0.000000 0.000000 0.000000 0.000000 10.000000 
Rope3_Seg02 0.000000 0.000000 0.000000 0.000000 0.000000 0.000000 10.000000 
Rope3_Seg03 0.000000 0.000000 0.000000 0.000000 0.000000 0.000000 10.000000 
Rope3_Seg04 0.000000 0.000000 0.000000 0.000000 0.000000 0.000000 10.000000 
Rope3_Seg05 0.000000 0.000000 0.000000 0.000000 0.000000 0.000000 10.000000 
Rope3_Seg06 0.000000 0.000000 0.000000 0.000000 0.000000 0.000000 10.000000 
Rope3_Seg07 0.000000 0.000000 0.000000 0.000000 0.000000 0.000000 10.000000 
Rope3_Seg08 0.000000 0.000000 0.000000 0.000000 0.000000 0.000000 10.000000 
Rope3_Seg09 0.000000 0.000000 0.000000 0.000000 0.000000 0.000000 10.000000 
R_rear_hand01 0.000000 0.000000 0.000000 0.000000 0.000000 0.000000 10.000000 
R_rear_hand02 0.000000 0.000000 0.000000 0.000000 0.000000 0.000000 10.000000 
R_rear_hand03 0.000000 0.000000 0.000000 0.000000 0.000000 0.000000 10.000000 
Rope4_Seg01 0.000000 0.000000 0.000000 0.000000 0.000000 0.000000 10.000000 
Rope4_Seg02 0.000000 0.000000 0.000000 0.000000 0.000000 0.000000 10.000000 
Rope4_Seg03 0.000000 0.000000 0.000000 0.000000 0.000000 0.000000 10.000000 
Rope4_Seg04 0.000000 0.000000 0.000000 0.000000 0.000000 0.000000 10.000000 
Rope4_Seg05 0.000000 0.000000 0.000000 0.000000 0.000000 0.000000 10.000000 
Rope4_Seg06 0.000000 0.000000 0.000000 0.000000 0.000000 0.000000 10.000000 
Rope4_Seg07 0.000000 0.000000 0.000000 0.000000 0.000000 0.000000 10.000000 
Rope4_Seg08 0.000000 0.000000 0.000000 0.000000 0.000000 0.000000 10.000000 
Rope4_Seg09 0.000000 0.000000 0.000000 0.000000 0.000000 0.000000 10.000000 
L_rear_hand01 0.000000 0.000000 0.000000 0.000000 0.000000 0.000000 10.000000 
L_rear_hand02 0.000000 0.000000 0.000000 0.000000 0.000000 0.000000 10.000000 
L_rear_hand03 0.000000 0.000000 0.000000 0.000000 0.000000 0.000000 10.000000 
#Beginning of Data. Separated by tabs
#Fr	Tx	Ty	Tz	Rx	Ry	Rz	SF
[MASTER]
12 -0.000330 2269.808105 0.000000 0.001660 0.001660 0.001660 2269.808105
13 -0.000364 2498.989502 0.000000 0.001660 0.001660 0.001660 2498.989502
[root]
12 -52.569687 150.321365 878.857300 -90.160393 5.203082 -89.483185 893.168701
13 -60.526592 171.949478 907.850891 -90.197441 4.390003 -88.591034 925.971497
[chest]
12 -84.512650 -34.090519 0.000000 5.841978 -0.587768 155.720139 91.129311
13 -84.512650 -34.090519 0.000000 5.802969 -0.773082 157.354843 91.129311
[L_mid_tent01]
12 27.299395 22.178070 -249.918320 -8.971821 15.655133 47.148697 252.381256
13 27.299387 22.178123 -249.918350 -12.072627 14.604840 43.167580 252.381271
[R_mid_tent01]
12 23.228794 24.509907 226.238495 -77.899086 -26.609556 -14.854789 228.744751
13 23.228794 24.509907 226.238495 -85.633614 -33.140083 -18.218155 228.744751
[spine01]
12 -0.361383 -0.195265 0.000000 0.583182 0.241641 18.754946 0.410763
13 -0.361383 -0.195265 0.000000 0.560235 0.231625 18.881187 0.410763
[Bip01_Neck]
12 165.484543 71.581718 0.000119 175.896118 1.177290 24.871183 180.302734
13 165.484543 71.581718 0.000119 175.896118 1.177290 24.871180 180.302734
[L_humerus]
12 -13.983130 -135.272980 -120.471481 -2.837031 64.972023 86.790916 181.680161
13 -13.983130 -135.272980 -120.471481 -2.878823 64.917229 86.741028 181.680161
[R_humerus]
12 -13.983309 -135.273102 125.287651 -78.372887 -35.524715 -177.808685 184.909012
13 -13.983309 -135.273102 125.287651 -84.694870 -24.531843 178.172241 184.909012
[weapon_bone]
12 235.964890 -300.705902 0.000000 0.000000 -89.951546 -128.212341 382.234833
13 235.964890 -300.705902 0.000000 0.000000 -89.951546 -128.212341 382.234833
[Bip01_Head]
12 201.712646 141.928513 -1.089444 8.471702 5.845271 -62.456406 246.643234
13 203.028870 146.454941 -1.736551 4.991808 5.842649 -62.457806 250.345352
[eye_left_bone]
12 -24.626970 125.451866 -64.772606 0.000000 -90.000000 -99.840431 143.318359
13 -24.626970 125.451866 -64.772606 0.000000 -90.000000 -99.840431 143.318359
[eye_right_bone]
12 -24.626970 125.451866 64.327362 0.000000 -89.960434 80.159386 143.117676
13 -24.626970 125.451866 64.327362 0.000000 -89.960434 80.159386 143.117676
[L_forearm]
12 322.776093 0.000000 -0.000119 0.000242 -0.002335 -101.838821 322.776093
13 322.776093 0.000000 -0.000119 0.000248 -0.002334 -102.137344 322.776093
[L_front_hand]
12 241.149185 -0.042021 -3.300071 -178.667953 -1.835447 -27.422342 241.171753
13 241.149185 -0.042021 -3.300071 -178.667953 -1.835447 -27.422342 241.171753
[L_weapon_bone]
12 156.183838 0.000000 0.000000 0.000014 0.000007 0.000001 156.183838
13 156.183838 0.000000 0.000000 0.000014 0.000007 0.000001 156.183838
[L_front_hand01_01]
12 86.095154 20.947098 -0.655860 -0.366594 -0.477154 75.385582 88.609184
13 86.095154 20.947098 -0.655860 -0.366594 -0.477154 75.385574 88.609184
[L_front_hand02_01]
12 86.935165 -11.437475 24.513514 154.403519 -59.888931 -61.371990 91.046425
13 86.935165 -11.437475 24.513514 154.403519 -59.888931 -61.371990 91.046425
[L_front_hand03_01]
12 86.637497 -14.123976 -20.424902 -153.913849 58.118122 -62.702866 90.126129
13 86.637497 -14.123976 -20.424902 -153.913849 58.118122 -62.702866 90.126129
[L_front_hand01_02]
12 71.020905 -0.000179 0.000030 0.000334 -0.002323 -106.379684 71.020905
13 71.020905 -0.000179 0.000030 0.000334 -0.002323 -106.379684 71.020905
[L_front_hand02_02]
12 71.020927 -0.000119 0.000060 0.000334 -0.002323 -106.379684 71.020927
13 71.020927 -0.000119 0.000060 0.000334 -0.002323 -106.379684 71.020927
[L_front_hand03_02]
12 71.020905 -0.000060 0.000060 0.000334 -0.002323 -106.379684 71.020905
13 71.020905 -0.000060 0.000060 0.000334 -0.002323 -106.379684 71.020905
[R_forearm]
12 322.776428 -0.000060 0.000030 0.203999 0.055391 -106.453468 322.776428
13 322.776428 -0.000060 0.000030 0.213159 0.008533 -93.967392 322.776428
[R_front_hand]
12 238.847015 -0.006795 2.210259 -18.700394 -0.217920 -17.397156 238.857239
13 238.847015 -0.006795 2.210259 -16.661974 0.457661 -14.287452 238.857239
[R_weapon_bone]
12 155.664093 0.002503 -0.000030 0.003487 0.001180 -90.988930 155.664078
13 155.664093 0.002503 -0.000030 0.003487 0.001180 -90.988930 155.664078
[R_front_hand01_01]
12 87.624611 14.231146 22.918642 -116.960205 3.496175 -1.323883 91.683487
13 87.624611 14.231146 22.918642 -154.633499 -59.950615 61.746044 91.683487
[R_front_hand02_01]
12 89.356956 14.367283 -19.491137 118.419624 -4.256595 0.610096 92.579636
13 89.356956 14.367283 -19.491137 154.602676 58.302864 63.744400 92.579636
[R_front_hand03_01]
12 87.286232 -22.307278 -0.143439 -0.387967 -0.231466 4.231439 90.091743
13 87.286232 -22.307278 -0.143439 0.162155 -0.423168 -75.767921 90.091743
[R_front_hand01_02]
12 71.020905 0.000060 0.000119 0.001777 0.001534 8.377220 71.020905
13 71.020905 0.000060 0.000119 0.001777 0.001534 8.377220 71.020905
[R_front_hand02_02]
12 71.020844 -0.000030 -0.000119 0.001777 0.001534 8.377220 71.020836
13 71.020844 -0.000030 -0.000119 0.001777 0.001534 8.377220 71.020836
[R_front_hand03_02]
12 71.020905 0.000000 0.000030 0.001777 0.001534 8.377220 71.020905
13 71.020905 0.000000 0.000030 0.001777 0.001534 8.377220 71.020905
[null_rope01_connect]
12 328.732483 0.000000 -0.000238 -174.359070 -71.916580 -149.143524 328.732483
13 328.732483 0.000000 -0.000238 178.010742 -70.939941 -136.876862 328.732483
[Rope1_Seg01]
12 0.000000 0.000000 0.000000 -16.616106 17.632616 -101.973373 0.000000
13 0.000000 0.000000 0.000000 -2.107713 19.434935 -113.223656 0.000000
[Rope1_Seg02]
12 139.999863 -0.000179 0.000000 2.035285 0.866071 -1.872634 139.999863
13 139.999863 -0.000179 0.000000 -21.077209 3.592119 -1.255687 139.999863
[Rope1_Seg03]
12 139.999924 0.000060 -0.000060 2.357378 0.831260 -1.846255 139.999924
13 139.999924 0.000060 -0.000060 -53.533554 4.378854 0.813171 139.999924
[Rope1_Seg04]
12 139.999924 -0.000060 -0.000119 1.775222 0.861967 -1.567835 139.999924
13 139.999924 -0.000060 -0.000119 -41.689415 3.167477 4.446238 139.999924
[Rope1_Seg05]
12 139.999832 0.000119 -0.000060 10.791917 0.565054 -3.437767 139.999832
13 139.999832 0.000119 -0.000060 -34.701752 4.032020 4.929459 139.999832
[Rope1_Seg06]
12 139.999954 0.000119 -0.000060 16.488512 -0.357703 -3.073848 139.999954
13 139.999954 0.000119 -0.000060 -11.300651 0.119090 4.100814 139.999954
[Rope1_Seg07]
12 139.999985 0.000060 0.000000 12.211465 -0.625344 -1.671840 139.999985
13 139.999985 0.000060 0.000000 -4.546060 -0.627514 2.734275 139.999985
[Rope1_Seg09]
12 121.602913 0.000119 -0.000089 -89.793175 -1.359789 0.847147 121.602913
13 121.602913 0.000119 -0.000089 -89.793175 -1.359789 0.847147 121.602913
[L_mid_hand01]
12 103.859421 1.038730 8.195221 114.519630 -53.311916 -20.622131 104.187431
13 103.859421 1.038730 8.195221 114.519554 -53.312042 -20.622023 104.187431
[L_mid_hand02]
12 105.572853 -4.139662 -10.864139 -155.067673 38.166626 -52.448818 106.211075
13 105.572853 -4.139662 -10.864139 -155.067673 38.166618 -52.448807 106.211075
[L_mid_hand03]
12 104.641464 17.579376 -3.913581 -10.970130 15.317461 57.626949 106.179977
13 104.641464 17.579376 -3.913581 -10.970130 15.317461 57.626949 106.179977
[null_rope02_connect]
12 328.732849 0.000179 -0.000119 -175.937134 -10.680720 -62.318619 328.732849
13 328.732849 0.000179 -0.000119 -168.652756 -3.744021 -55.349503 328.732849
[Rope2_Seg01]
12 0.000028 0.000232 0.000130 150.556915 30.310263 -57.752712 0.000267
13 0.000031 0.000246 0.000128 123.506554 24.358915 -66.507324 0.000279
[Rope2_Seg02]
12 139.999741 -0.000060 -0.000119 -1.305947 -2.694368 1.744205 139.999756
13 139.999741 -0.000060 -0.000119 3.424493 0.028425 -1.556130 139.999756
[Rope2_Seg03]
12 140.000107 0.000030 0.000000 -0.812798 -2.278608 1.402940 140.000107
13 140.000107 0.000030 0.000000 3.242080 -0.027824 -1.404309 140.000107
[Rope2_Seg04]
12 139.999802 0.000000 -0.000060 2.068834 -1.649856 -0.310130 139.999802
13 139.999802 0.000000 -0.000060 5.682704 1.603025 -2.920178 139.999802
[Rope2_Seg05]
12 139.999985 -0.000060 0.000119 0.572555 -1.300354 0.252350 139.999985
13 139.999985 -0.000060 0.000119 2.768056 -0.147523 -0.991358 139.999985
[Rope2_Seg06]
12 139.999893 -0.000030 -0.000119 -4.046822 -1.771481 3.202539 139.999893
13 139.999893 -0.000030 -0.000119 -3.809404 -3.761499 3.429593 139.999893
[Rope2_Seg07]
12 139.999893 0.000060 -0.000060 -8.584835 -3.887160 8.209971 139.999893
13 139.999893 0.000060 -0.000060 -7.196623 -10.853944 9.894970 139.999893
[Rope2_Seg09]
12 121.338966 0.000089 -0.000060 94.622429 0.398011 -1.535633 121.338966
13 121.338966 0.000089 -0.000060 102.264580 0.476992 -1.525705 121.338966
[R_mid_hand01]
12 104.680779 11.144459 -10.335981 -45.231022 16.233332 18.229738 105.778534
13 104.680779 11.144459 -10.335981 -31.189335 37.773026 48.068108 105.778534
[R_mid_hand02]
12 104.070427 2.443552 8.231699 74.704796 -19.933538 5.861593 104.424065
13 104.070427 2.443552 8.231699 66.183014 -52.103355 19.743057 104.424065
[R_mid_hand03]
12 106.028137 -11.221827 -5.996406 -165.892441 7.220818 -23.862425 106.788818
13 106.028137 -11.221827 -5.996406 -172.283524 13.841950 -57.761921 106.788818
[spine02]
12 129.756927 0.001550 0.000119 -0.249806 -11.748045 -4.324005 129.756927
13 129.756927 0.001550 0.000119 -0.253971 -12.444942 -4.319843 129.756927
[spine03]
12 78.557365 0.094532 -5.450613 1.867299 4.038315 16.226416 78.746284
13 78.557465 0.094401 -5.449716 1.880746 4.003847 16.451160 78.746323
[pelvis]
12 169.435242 0.051022 0.000000 -0.054863 -0.468621 5.342280 169.435257
13 169.435242 0.051022 0.000000 -0.055636 -0.456117 5.680965 169.435257
[null_rope03_connect]
12 -1.257226 -2.466202 137.391083 64.811668 -81.984940 -15.975360 137.418976
13 -1.257226 -2.466202 137.391083 68.404388 -80.458405 -19.472445 137.418976
[null_rope04_connect]
12 -1.259640 -2.480268 -137.844437 64.811668 -81.984940 -15.975360 137.872513
13 -1.259640 -2.480268 -137.844437 68.404388 -80.458405 -19.472445 137.872513
[Rope3_Seg01]
12 0.000054 -0.000208 0.000000 -131.516495 -12.303909 -74.909241 0.000215
13 0.000052 -0.000224 0.000000 -133.881332 -24.439873 -72.796883 0.000230
[Rope3_Seg02]
12 139.999924 -0.000119 0.000060 0.517802 -5.204391 4.776883 139.999924
13 139.999924 -0.000119 0.000060 1.172612 -5.573869 3.114114 139.999924
[Rope3_Seg03]
12 139.999924 -0.000119 0.000119 0.321778 -6.951481 6.570692 139.999924
13 139.999924 -0.000119 0.000119 1.704123 -8.532756 5.059437 139.999924
[Rope3_Seg04]
12 139.999924 0.000119 0.000000 -0.637374 -11.358956 11.011090 139.999924
13 139.999924 0.000119 0.000000 2.285437 -15.942623 11.179151 139.999924
[Rope3_Seg05]
12 139.999924 -0.000238 0.000060 -2.838733 -16.172703 16.089209 139.999924
13 139.999924 -0.000238 0.000060 0.723270 -22.320107 19.591530 139.999924
[Rope3_Seg06]
12 139.999893 -0.000119 -0.000060 0.381915 -0.099484 0.659093 139.999893
13 139.999893 -0.000119 -0.000060 0.829885 -4.009071 -1.601136 139.999893
[Rope3_Seg07]
12 139.999771 0.000060 -0.000119 -0.825797 17.334770 -15.731628 139.999771
13 139.999771 0.000060 -0.000119 -7.901893 7.651083 -24.612659 139.999771
[Rope3_Seg08]
12 139.999985 -0.000060 0.000000 -0.321523 10.551306 -9.630125 139.999985
13 139.999985 -0.000060 0.000000 -11.314562 4.491941 -21.768927 139.999985
[Rope3_Seg09]
12 90.185997 -0.000179 -0.000060 72.724998 -1.359426 -0.845302 90.185997
13 90.185997 -0.000179 -0.000060 71.324867 -1.362137 -0.847584 90.185997
[R_rear_hand01]
12 103.366196 -6.073594 -10.757982 -177.714127 24.565960 -73.910805 104.101845
13 103.366196 -6.073594 -10.757982 -169.737839 22.551638 -54.126343 104.101845
[R_rear_hand02]
12 100.509819 12.039542 -7.992327 -12.874932 36.868465 72.167053 101.543350
13 100.509819 12.039542 -7.992327 -24.598360 30.936037 51.336994 101.543350
[R_rear_hand03]
12 101.539970 5.215704 5.435467 71.484772 -71.816536 21.513685 101.819031
13 101.539970 5.215704 5.435467 80.282967 -54.075653 11.757504 101.819031
[Rope4_Seg01]
12 0.000084 -0.000282 0.000000 42.695747 5.591827 -127.750427 0.000295
13 0.000083 -0.000319 0.000000 45.631592 0.292887 -121.603081 0.000329
[Rope4_Seg02]
12 139.999985 0.000060 0.000119 -0.907791 7.116890 0.435785 139.999985
13 139.999985 0.000060 0.000119 -0.895794 5.517624 -0.744653 139.999985
[Rope4_Seg03]
12 139.999924 0.000000 -0.000238 -0.510501 6.962117 0.540415 139.999924
13 139.999924 0.000000 -0.000238 -0.593939 5.440701 -0.655404 139.999924
[Rope4_Seg04]
12 139.999985 0.000000 0.000119 -0.414743 7.983603 -0.567682 139.999985
13 139.999985 0.000000 0.000119 -0.542673 6.888498 -1.552149 139.999985
[Rope4_Seg05]
12 139.999802 -0.000060 -0.000119 0.100553 6.023094 0.279336 139.999802
13 139.999802 -0.000060 -0.000119 -0.013905 4.458798 -0.399796 139.999802
[Rope4_Seg06]
12 139.999924 0.000000 0.000060 0.034375 2.157941 3.049745 139.999924
13 139.999924 0.000000 0.000060 0.103162 0.405322 2.123841 139.999924
[Rope4_Seg07]
12 139.999802 0.000000 0.000000 -0.457271 -0.076672 5.181893 139.999802
13 139.999802 0.000000 0.000000 -0.017829 -1.299295 3.900027 139.999802
[Rope4_Seg08]
12 139.999924 0.000000 0.000119 -1.831514 1.123175 3.293412 139.999924
13 139.999924 0.000000 0.000119 -1.553054 0.342630 2.895734 139.999924
[Rope4_Seg09]
12 90.185791 0.000060 0.000060 -135.617828 2.228885 0.850567 90.185791
13 90.185791 0.000060 0.000060 -135.617828 2.228885 0.850567 90.185791
[L_rear_hand01]
12 101.696655 -8.392275 -7.654577 -19.915012 -33.950886 119.950104 102.329041
13 101.696655 -8.392275 -7.654577 -19.915012 -33.950886 119.950104 102.329041
[L_rear_hand02]
12 102.726799 -1.568258 5.773216 77.862221 61.878510 165.399185 102.900848
13 102.726799 -1.568258 5.773216 77.862236 61.878510 165.399200 102.900848
[L_rear_hand03]
12 104.552910 9.721220 -10.420293 -173.099182 -23.740309 -117.327911 105.519653
13 104.552910 9.721220 -10.420293 -173.099182 -23.740307 -117.327896 105.519653
